<svg xmlns="http://www.w3.org/2000/svg" viewBox="0 0 1536 858" preserveAspectRatio="xMidYMid" width="1536" height="858" style="shape-rendering: auto; display: block; background: rgb(255, 255, 255);"><g data-idx="1"><linearGradient y2="0" y1="0" x2="1" x1="0" id="lg-nq4q5u6dq7r" data-idx="2">
  <stop offset="0" stop-color="#ff00ff" data-idx="3"></stop>
  <stop offset="1" stop-color="#00ffff" data-idx="4"></stop>
</linearGradient><path opacity="0.4" fill="url(#lg-nq4q5u6dq7r)" d="M 0 0 L 0 492.837 Q 153.6 591.617 307.2 550.247 T 614.4 377.741 T 921.6 412.284 T 1228.8 382.27 T 1536 201.956 L 1536 0 Z" data-idx="5">
  
</path><path opacity="0.4" fill="url(#lg-nq4q5u6dq7r)" d="M 0 0 L 0 509.489 Q 153.6 526.36 307.2 502.191 T 614.4 501.461 T 921.6 444.949 T 1228.8 309.242 T 1536 308.676 L 1536 0 Z" data-idx="7">
  
</path><path opacity="0.4" fill="url(#lg-nq4q5u6dq7r)" d="M 0 0 L 0 589.391 Q 153.6 561.025 307.2 534.912 T 614.4 411.213 T 921.6 474.014 T 1228.8 322.668 T 1536 267.658 L 1536 0 Z" data-idx="9">
  
</path><path opacity="0.4" fill="url(#lg-nq4q5u6dq7r)" d="M 0 0 L 0 543.541 Q 153.6 523.233 307.2 486.082 T 614.4 415.894 T 921.6 450.794 T 1228.8 329.572 T 1536 312.976 L 1536 0 Z" data-idx="11">
  
</path><path opacity="0.4" fill="url(#lg-nq4q5u6dq7r)" d="M 0 0 L 0 592.293 Q 153.6 547.588 307.2 511.019 T 614.4 406.933 T 921.6 399.473 T 1228.8 380.461 T 1536 363.145 L 1536 0 Z" data-idx="13">
  
</path><g data-idx="15"></g></g><text data-watermark="true" text-anchor="middle" dominant-baseline="middle" stroke-opacity="0.1" fill="black" fill-opacity="0.1" stroke="white" stroke-width="1" font-size="15.0" x="768.0" y="429.0" data-idx="16" style="opacity: 1; font-size: 15px;">LOADING.IO</text></svg>